PathFileType	4	(X/Y/Z)	Patient4_TMGait_0pt4_01_left_28.trc.trc
DataRate	CameraRate	NumFrames	NumMarkers	Units	OrigDataRate	OrigDataStartFrame	OrigNumFrames
72.916666666667	72.916666666667	4	33	mm	72.916666666667	36	       141
Frame#	Time	Sacral			L.Shoulder			Chest			R.Shoulder			Neck			R.ASIS			L.ASIS			R.Thigh.Superior			R.Thigh.Lateral			R.Thigh.Inferior			R.Patella			L.Thigh.Superior			L.Thigh.Lateral			L.Thigh.Inferior			L.Patella			L.Shank.Superior			L.Shank.Lateral			L.Shank.Inferior			R.Shank.Superior			R.Shank.Lateral			R.Shank.Inferior			R.Heel			R.Midfoot.Superior			R.Midfoot.Lateral			R.Toe			L.Heel			L.Midfoot.Lateral			L.Midfoot.Superior			L.Toe			L.Elbow			L.Wrist			R.Elbow			R.Wrist			
		X1	Y1	Z1	X2	Y2	Z2	X3	Y3	Z3	X4	Y4	Z4	X5	Y5	Z5	X6	Y6	Z6	X7	Y7	Z7	X8	Y8	Z8	X9	Y9	Z9	X10	Y10	Z10	X11	Y11	Z11	X12	Y12	Z12	X13	Y13	Z13	X14	Y14	Z14	X15	Y15	Z15	X16	Y16	Z16	X17	Y17	Z17	X18	Y18	Z18	X19	Y19	Z19	X20	Y20	Z20	X21	Y21	Z21	X22	Y22	Z22	X23	Y23	Z23	X24	Y24	Z24	X25	Y25	Z25	X26	Y26	Z26	X27	Y27	Z27	X28	Y28	Z28	X29	Y29	Z29	X30	Y30	Z30	X31	Y31	Z31	X32	Y32	Z32	X33	Y33	Z33	

36	34.560000000000	912.059970412927	1009.085476711248	476.022443050826	1081.016487883431	1434.115407169221	282.368560705237	1195.955706208559	1367.388068677106	435.321320996986	1125.672942297399	1444.220300069243	613.654577879625	1078.167361806177	1496.111547963043	438.020526140832	1143.166471568401	943.214880208068	584.828770696299	1122.253814053158	961.289611074992	311.572533226696	1155.419329046306	730.815011712802	566.331411836256	1060.680108493419	632.682310589940	633.806454957305	1129.912212288986	566.315243070377	558.974247883265	1116.863455279853	469.387633549628	575.143602434302	1188.127551810192	763.918781865743	347.012615337474	1118.422468570445	637.397502351191	282.850211037278	1212.324458784186	569.754047539066	345.508587237862	1220.880361945851	498.629478269756	353.171671457052	1196.625124466243	424.657305552914	344.447604032458	1112.904068488579	307.507207399758	290.134099228758	1167.774574662368	196.520716404866	358.919430641549	1058.239709961938	393.725202901633	582.628495649180	955.831531905773	322.837181052642	648.728595034513	965.864810247742	215.615467948390	591.862110555585	788.066841550835	86.199775121771	570.043902061568	967.095265557981	102.780553940435	601.618529050869	869.750017433163	57.088255289625	640.614083846572	1073.599868520995	37.020536942528	623.452305340442	1044.959099505535	39.102768000039	395.968583795204	1120.802149991098	36.787275218741	317.217851114360	1203.035195694150	97.696082352796	346.662896692616	1332.336642226265	45.649494372471	320.776689607065	999.327603481799	1091.821502024699	169.375980313898	1063.259936741993	837.688120986420	149.439781203974	1176.746833938995	1106.316938436659	747.489500874712	1383.287161221004	962.860691260509	691.622890203078	
37	34.573714285714	912.030976872189	1009.536199269141	472.008810758850	1082.362340731994	1434.492089439062	278.462697274830	1196.094643980155	1368.053787225086	432.404170816622	1124.420634994263	1445.237082267666	610.034275329759	1078.100194858004	1496.674493204563	433.977611130590	1142.425972010738	944.045019932032	581.869246527891	1123.137604918714	961.716929701591	308.828666283227	1159.157225079779	732.439813107674	564.173280354210	1066.842327437693	632.758291045162	631.965949729997	1138.124035649757	567.199184476755	557.640208540449	1126.253229100473	468.515291963127	575.331589151046	1187.818324846378	763.092721709468	343.140594164176	1115.806484072327	637.094491283277	280.498216488664	1209.314048282932	568.812397996819	342.777449497139	1217.257650713506	498.070498791707	351.220434818214	1192.849749755082	424.147989406343	342.855963969597	1108.754897765426	307.132787465130	288.813824482181	1162.907127103411	196.273673003606	358.365271980508	1065.046586201318	393.899298646648	582.456351673743	960.030363284042	326.583626497300	648.143669632335	967.527333931505	218.701659942861	592.348501359019	785.970736446429	95.513753982410	570.649833046352	965.277433301735	104.584483204937	602.126192259843	866.308833820745	62.647540870084	640.955943773932	1068.396462747624	36.438801720965	623.410947617281	1039.505403403931	39.074445578533	395.886773853627	1115.321943738684	36.673483976710	317.073951627075	1197.560750516297	97.595596029780	346.494284435491	1326.902730252187	45.495956270653	320.659955282080	1004.795943443204	1091.607327320122	163.690857793322	1077.154762459073	839.531001136016	144.905772626465	1168.260470334435	1105.899906398461	743.770063667690	1367.908132609709	950.657234326990	692.452124760966	
38	34.587428571429	911.806728896733	1009.793376247729	468.092735743071	1083.804578532833	1434.678405303601	274.596185759659	1196.147008502627	1368.523093356634	429.642005574520	1122.937154201930	1446.065677122971	606.503908800892	1078.014278806359	1497.078826145453	429.972194535571	1141.505011297146	944.732530096522	579.092844942628	1123.819747278575	961.996352624299	306.236337559594	1163.365572294755	734.261169306282	562.070003682071	1073.768940300826	632.822102836561	630.123666380514	1147.218273867198	568.301121018984	556.273042307176	1136.554958506953	467.916707681000	575.276994448285	1187.245515683895	762.091455890691	339.405195155855	1113.131649050694	636.742164101768	278.168639146234	1206.155214248903	567.856457578040	340.248960700844	1213.489512559467	497.463617390508	349.344518677025	1188.939238515701	423.590250798808	341.314927329564	1104.491477634793	306.696484745461	287.584294051382	1157.934056799654	195.980414391729	357.880580444919	1072.836584399743	394.274138105282	582.117715154347	965.324374333948	330.743905224097	647.490488044417	969.980370155478	222.302798595066	592.739340910792	784.712153632813	106.151464065141	571.229545109325	963.944800562079	106.924447070743	602.610208246776	863.357597143681	69.323022855619	641.291536489209	1063.200831220013	35.733956929182	623.413586523852	1033.968041402236	39.024531182951	395.826486448154	1109.759241880526	36.545107955421	316.953716665735	1192.020451286960	97.446660404629	346.372071912416	1321.394424449381	45.275868661894	320.580454743305	1010.496488937488	1091.306120224795	157.886639618616	1091.380252215624	841.596946330428	140.474796802398	1159.305074145049	1105.455261067814	740.061441845301	1351.269446929699	938.561658947398	693.665248406476	
39	34.601142857143	911.373370931760	1009.851744878775	464.319211433558	1085.292390313612	1434.663740591079	270.810479848310	1196.098053897528	1368.784157596085	427.049382754682	1121.243961027219	1446.685117841515	603.093832051023	1077.910064870275	1497.318848244062	426.042957416361	1140.433441185850	945.276718645141	576.529062109427	1124.269388454408	962.132668860269	303.788627128453	1167.929544287025	736.310599096284	559.984462211603	1081.337865969362	632.948193838725	628.252669204117	1157.005216639618	569.695159304152	554.821553063070	1147.607641767686	467.691355681542	574.898189715625	1186.438770630027	760.996521863552	335.942572340415	1110.543883691538	636.377536038197	275.900764549092	1202.966056190313	566.924051309097	338.005273672691	1209.688849019412	496.819302823660	347.617669239977	1184.998757588918	422.992289241167	339.879170398842	1100.224599975377	306.223955153067	286.460088576663	1152.923572767448	195.649731526721	357.478856068123	1081.487637683638	394.922072155317	581.548687969442	971.639153852450	335.325872001726	646.713697130875	973.198664145141	226.447947188436	592.965235452249	784.385844633240	118.048376824697	571.698340051818	963.133869085302	109.884571886859	603.037965034557	860.983777278823	77.142601180483	641.565085538569	1058.072429294102	34.917327793862	623.476745382214	1028.384814791112	38.962725368008	395.775373563447	1104.154462901392	36.417505729135	316.849743002122	1186.449057533570	97.272544584322	346.290226781754	1315.848210509658	45.016015413970	320.529732905509	1016.493130167869	1090.900923091935	151.996447777822	1105.896333568591	843.859515920932	136.182848340750	1149.861518529947	1104.975693599043	736.396398763291	1333.395103333738	926.766811722076	695.234854144874	
